<svg width="22" height="22" viewBox="0 0 22 22" version="1.1" xmlns="http://www.w3.org/2000/svg" xmlns:xlink="http://www.w3.org/1999/xlink">
<title>Group 3</title>
<desc>Created using Figma</desc>
<g id="Canvas" transform="translate(-8439 599)">
<g id="Group 3">
<g id="Group 2">
<g id="Group">
<g id="Ellipse 2">
<use xlink:href="#path0_fill" transform="translate(8439 -599)" fill="#000000" fill-opacity="0.5"/>
</g>
</g>
</g>
<g id="i">
<use xlink:href="#path1_fill" transform="translate(8448 -595)" fill="#DCDCDC"/>
</g>
</g>
</g>
<defs>
<path id="path0_fill" d="M 22 11C 22 17.0751 17.0751 22 11 22C 4.92487 22 0 17.0751 0 11C 0 4.92487 4.92487 0 11 0C 17.0751 0 22 4.92487 22 11Z"/>
<path id="path1_fill" d="M 0.256604 4.76471L 0.256604 4.21925C 0.407547 4.15508 0.608805 4.09091 0.860377 4.02674C 1.11195 3.95187 1.37862 3.8877 1.66038 3.83422C 1.94214 3.78075 2.21887 3.73797 2.49057 3.70588C 2.77233 3.6631 3.01887 3.64171 3.23019 3.64171L 3.50189 3.83422L 2.1434 10.7487L 3.2 10.7487L 3.2 11.2941C 3.06918 11.3904 2.91321 11.4813 2.73208 11.5668C 2.56101 11.6524 2.37484 11.7273 2.17358 11.7914C 1.98239 11.8556 1.78616 11.9037 1.58491 11.9358C 1.38365 11.9786 1.19245 12 1.01132 12C 0.628931 12 0.362264 11.9251 0.211321 11.7754C 0.0704402 11.615 0 11.4439 0 11.262C 0 11.0481 0.0150943 10.8396 0.045283 10.6364C 0.0754717 10.4332 0.115723 10.2086 0.166038 9.96257L 1.19245 4.9893L 0.256604 4.76471ZM 1.52453 1.15508C 1.52453 0.791444 1.64025 0.508021 1.8717 0.304813C 2.10314 0.101604 2.39497 0 2.74717 0C 3.12956 0 3.43145 0.101604 3.65283 0.304813C 3.88428 0.508021 4 0.791444 4 1.15508C 4 1.49733 3.88428 1.77005 3.65283 1.97326C 3.43145 2.17647 3.12956 2.27807 2.74717 2.27807C 2.39497 2.27807 2.10314 2.17647 1.8717 1.97326C 1.64025 1.77005 1.52453 1.49733 1.52453 1.15508Z"/>
</defs>
</svg>
