<svg width="239" height="43" viewBox="0 0 239 43" version="1.1" xmlns="http://www.w3.org/2000/svg" xmlns:xlink="http://www.w3.org/1999/xlink">
<title>G&#225;&#187;&#173;i &#225;&#186;&#163;nh ch&#225;&#187;&#165;p c&#195;&#185;ng &#226;&#128;&#156;x&#225;&#186;&#191; y&#195;&#170;u&#226;&#128;&#157; Nh&#225;&#186;&#173;n ngay &#226;&#128;&#156;b&#195;&#163;o&#226;&#128;&#157; qu&#195;&#160; t&#225;&#186;&#183;ng!</title>
<desc>Created using Figma</desc>
<g id="Canvas" transform="translate(-29295 -8608)">
<g id="G&#225;&#187;&#173;i &#225;&#186;&#163;nh ch&#225;&#187;&#165;p c&#195;&#185;ng &#226;&#128;&#156;x&#225;&#186;&#191; y&#195;&#170;u&#226;&#128;&#157; Nh&#225;&#186;&#173;n ngay &#226;&#128;&#156;b&#195;&#163;o&#226;&#128;&#157; qu&#195;&#160; t&#225;&#186;&#183;ng!">
<use xlink:href="#path0_fill" transform="translate(29295.8 8608.37)" fill="#FFFFFF"/>
<use xlink:href="#path1_fill" transform="translate(29295.8 8608.37)" fill="#FFFFFF"/>
<use xlink:href="#path2_fill" transform="translate(29295.8 8608.37)" fill="#FFFFFF"/>
<use xlink:href="#path3_fill" transform="translate(29295.8 8608.37)" fill="#FFFFFF"/>
<use xlink:href="#path4_fill" transform="translate(29295.8 8608.37)" fill="#FFFFFF"/>
<use xlink:href="#path5_fill" transform="translate(29295.8 8608.37)" fill="#FFFFFF"/>
<use xlink:href="#path6_fill" transform="translate(29295.8 8608.37)" fill="#FFFFFF"/>
<use xlink:href="#path7_fill" transform="translate(29295.8 8608.37)" fill="#FFFFFF"/>
<use xlink:href="#path8_fill" transform="translate(29295.8 8608.37)" fill="#FFFFFF"/>
<use xlink:href="#path9_fill" transform="translate(29295.8 8608.37)" fill="#FFFFFF"/>
<use xlink:href="#path10_fill" transform="translate(29295.8 8608.37)" fill="#FFFFFF"/>
<use xlink:href="#path11_fill" transform="translate(29295.8 8608.37)" fill="#FFFFFF"/>
<use xlink:href="#path12_fill" transform="translate(29295.8 8608.37)" fill="#FFFFFF"/>
<use xlink:href="#path13_fill" transform="translate(29295.8 8608.37)" fill="#FFFFFF"/>
<use xlink:href="#path14_fill" transform="translate(29295.8 8608.37)" fill="#FFFFFF"/>
<use xlink:href="#path15_fill" transform="translate(29295.8 8608.37)" fill="#FFFFFF"/>
<use xlink:href="#path16_fill" transform="translate(29295.8 8608.37)" fill="#FFFFFF"/>
<use xlink:href="#path17_fill" transform="translate(29295.8 8608.37)" fill="#FFFFFF"/>
<use xlink:href="#path18_fill" transform="translate(29295.8 8608.37)" fill="#FFFFFF"/>
<use xlink:href="#path19_fill" transform="translate(29295.8 8608.37)" fill="#FFFFFF"/>
<use xlink:href="#path20_fill" transform="translate(29295.8 8608.37)" fill="#FFFFFF"/>
<use xlink:href="#path21_fill" transform="translate(29295.8 8608.37)" fill="#FFFFFF"/>
<use xlink:href="#path22_fill" transform="translate(29295.8 8608.37)" fill="#FFFFFF"/>
<use xlink:href="#path23_fill" transform="translate(29295.8 8608.37)" fill="#FFFFFF"/>
<use xlink:href="#path24_fill" transform="translate(29295.8 8608.37)" fill="#FFFFFF"/>
<use xlink:href="#path25_fill" transform="translate(29295.8 8608.37)" fill="#FFFFFF"/>
<use xlink:href="#path26_fill" transform="translate(29295.8 8608.37)" fill="#FFFFFF"/>
<use xlink:href="#path27_fill" transform="translate(29295.8 8608.37)" fill="#FFFFFF"/>
<use xlink:href="#path28_fill" transform="translate(29295.8 8608.37)" fill="#FFFFFF"/>
<use xlink:href="#path29_fill" transform="translate(29295.8 8608.37)" fill="#FFFFFF"/>
<use xlink:href="#path30_fill" transform="translate(29295.8 8608.37)" fill="#FFFFFF"/>
<use xlink:href="#path31_fill" transform="translate(29295.8 8608.37)" fill="#FFFFFF"/>
<use xlink:href="#path32_fill" transform="translate(29295.8 8608.37)" fill="#FFFFFF"/>
<use xlink:href="#path33_fill" transform="translate(29295.8 8608.37)" fill="#FFFFFF"/>
<use xlink:href="#path34_fill" transform="translate(29295.8 8608.37)" fill="#FFFFFF"/>
<use xlink:href="#path35_fill" transform="translate(29295.8 8608.37)" fill="#FFFFFF"/>
<use xlink:href="#path36_fill" transform="translate(29295.8 8608.37)" fill="#FFFFFF"/>
<use xlink:href="#path37_fill" transform="translate(29295.8 8608.37)" fill="#FFFFFF"/>
<use xlink:href="#path38_fill" transform="translate(29295.8 8608.37)" fill="#FFFFFF"/>
<use xlink:href="#path39_fill" transform="translate(29295.8 8608.37)" fill="#FFFFFF"/>
<use xlink:href="#path40_fill" transform="translate(29295.8 8608.37)" fill="#FFFFFF"/>
<use xlink:href="#path41_fill" transform="translate(29295.8 8608.37)" fill="#FFFFFF"/>
</g>
</g>
<defs>
<path id="path0_fill" d="M 6.65 14.877C 8.854 14.877 10.621 13.965 11.875 12.578L 11.875 7.828L 5.871 7.828L 5.871 9.785L 9.652 9.785L 9.652 11.761C 9.082 12.293 7.942 12.901 6.65 12.901C 4.142 12.901 2.28 10.963 2.28 8.303C 2.28 5.643 4.142 3.724 6.65 3.724C 8.075 3.724 9.272 4.465 9.937 5.415L 11.761 4.389C 10.735 2.926 9.12 1.748 6.65 1.748C 2.983 1.748 0 4.332 0 8.303C 0 12.274 2.983 14.877 6.65 14.877Z"/>
<path id="path1_fill" d="M 17.5331 3.572C 17.6471 3.23 17.8751 3.002 18.2361 3.002C 18.5781 3.002 18.8441 3.211 18.8441 3.667C 18.8441 3.99 18.7301 4.313 18.4451 4.617L 19.3571 4.617C 19.5661 4.294 19.6801 4.028 19.6801 3.629C 19.6801 2.679 18.9961 2.28 18.2361 2.28C 17.5141 2.28 16.9821 2.698 16.7731 3.344L 17.5331 3.572ZM 22.3211 14.63L 22.3211 7.049C 23.3851 6.403 23.9741 5.358 23.9741 4.351C 23.9741 3.515 23.4611 3.04 22.8721 3.04C 22.3401 3.04 21.9221 3.477 21.9221 3.99C 21.9221 4.522 22.2831 4.883 22.7771 4.883C 22.8531 4.883 22.9861 4.864 23.0051 4.845C 22.9481 5.263 22.6821 5.7 22.3211 6.042L 22.3211 5.453L 20.3261 5.453L 20.3261 11.894C 19.8511 12.521 18.9771 13.091 17.9701 13.091C 16.8491 13.091 16.1271 12.654 16.1271 11.229L 16.1271 5.453L 14.1321 5.453L 14.1321 11.951C 14.1321 13.832 15.1011 14.858 17.0771 14.858C 18.5211 14.858 19.6611 14.155 20.3261 13.414L 20.3261 14.63L 22.3211 14.63Z"/>
<path id="path2_fill" d="M 25.9004 4.332C 26.5844 4.332 27.1354 3.781 27.1354 3.097C 27.1354 2.413 26.5844 1.862 25.9004 1.862C 25.2354 1.862 24.6654 2.413 24.6654 3.097C 24.6654 3.781 25.2354 4.332 25.9004 4.332ZM 26.9074 14.63L 26.9074 5.453L 24.9124 5.453L 24.9124 14.63L 26.9074 14.63Z"/>
<path id="path3_fill" d="M 41.9753 14.63L 41.9753 8.55C 41.9753 6.08 40.1893 5.225 38.1563 5.225C 36.6933 5.225 35.3633 5.7 34.2993 6.707L 35.1163 8.094C 35.9143 7.315 36.8073 6.935 37.8333 6.935C 39.1063 6.935 39.9803 7.581 39.9803 8.645L 39.9803 10.013C 39.3153 9.234 38.2513 8.835 37.0163 8.835C 35.5153 8.835 33.8243 9.709 33.8243 11.818C 33.8243 13.851 35.5153 14.858 37.0163 14.858C 38.2323 14.858 39.2963 14.421 39.9803 13.642L 39.9803 14.63L 41.9753 14.63ZM 37.7953 13.49C 36.6743 13.49 35.8383 12.844 35.8383 11.856C 35.8383 10.849 36.6743 10.203 37.7953 10.203C 38.6693 10.203 39.5243 10.526 39.9803 11.153L 39.9803 12.54C 39.5243 13.167 38.6693 13.49 37.7953 13.49ZM 37.4723 3.572C 37.5863 3.23 37.8143 3.002 38.1753 3.002C 38.5173 3.002 38.7833 3.211 38.7833 3.667C 38.7833 3.99 38.6693 4.313 38.3843 4.617L 39.2963 4.617C 39.5053 4.294 39.6193 4.028 39.6193 3.629C 39.6193 2.679 38.9353 2.28 38.1753 2.28C 37.4533 2.28 36.9213 2.698 36.7123 3.344L 37.4723 3.572Z"/>
<path id="path4_fill" d="M 52.7508 14.63L 52.7508 8.17C 52.7508 6.289 51.7628 5.225 49.7868 5.225C 48.3428 5.225 47.1648 5.985 46.5568 6.707L 46.5568 5.453L 44.5618 5.453L 44.5618 14.63L 46.5568 14.63L 46.5568 8.227C 47.0128 7.6 47.8868 6.992 48.9128 6.992C 50.0338 6.992 50.7558 7.467 50.7558 8.892L 50.7558 14.63L 52.7508 14.63Z"/>
<path id="path5_fill" d="M 63.5501 14.63L 63.5501 8.132C 63.5501 6.251 62.5621 5.225 60.5861 5.225C 59.1421 5.225 57.9451 5.985 57.3371 6.707L 57.3371 1.957L 55.3421 1.957L 55.3421 14.63L 57.3371 14.63L 57.3371 8.227C 57.8121 7.6 58.6861 6.992 59.6931 6.992C 60.8141 6.992 61.5551 7.429 61.5551 8.854L 61.5551 14.63L 63.5501 14.63Z"/>
<path id="path6_fill" d="M 75.2008 14.858C 76.9868 14.858 78.0698 14.098 78.7158 13.224L 77.4048 12.008C 76.8918 12.711 76.1888 13.091 75.2958 13.091C 73.6238 13.091 72.5218 11.818 72.5218 10.032C 72.5218 8.246 73.6238 6.992 75.2958 6.992C 76.1888 6.992 76.8918 7.353 77.4048 8.075L 78.7158 6.859C 78.0698 5.985 76.9868 5.225 75.2008 5.225C 72.4078 5.225 70.4508 7.258 70.4508 10.032C 70.4508 12.825 72.4078 14.858 75.2008 14.858Z"/>
<path id="path7_fill" d="M 88.6731 14.63L 88.6731 8.132C 88.6731 6.251 87.6852 5.225 85.7092 5.225C 84.2652 5.225 83.0682 5.985 82.4602 6.707L 82.4602 1.957L 80.4651 1.957L 80.4651 14.63L 82.4602 14.63L 82.4602 8.227C 82.9352 7.6 83.8091 6.992 84.8161 6.992C 85.9371 6.992 86.6781 7.429 86.6781 8.854L 86.6781 14.63L 88.6731 14.63Z"/>
<path id="path8_fill" d="M 99.453 14.63L 99.453 5.453L 97.458 5.453L 97.458 11.894C 96.983 12.521 96.109 13.091 95.102 13.091C 93.981 13.091 93.259 12.654 93.259 11.229L 93.259 5.453L 91.264 5.453L 91.264 11.951C 91.264 13.832 92.233 14.858 94.209 14.858C 95.653 14.858 96.793 14.155 97.458 13.414L 97.458 14.63L 99.453 14.63ZM 95.387 18.259C 95.995 18.259 96.489 17.765 96.489 17.138C 96.489 16.53 95.995 16.017 95.387 16.017C 94.779 16.017 94.266 16.53 94.266 17.138C 94.266 17.765 94.779 18.259 95.387 18.259Z"/>
<path id="path9_fill" d="M 106.984 14.858C 109.359 14.858 111.05 13.053 111.05 10.032C 111.05 7.011 109.359 5.225 106.984 5.225C 105.787 5.225 104.723 5.795 104.039 6.707L 104.039 5.453L 102.044 5.453L 102.044 18.126L 104.039 18.126L 104.039 13.357C 104.78 14.345 105.825 14.858 106.984 14.858ZM 106.395 13.091C 105.464 13.091 104.476 12.521 104.039 11.856L 104.039 8.227C 104.476 7.543 105.464 6.992 106.395 6.992C 107.972 6.992 108.979 8.265 108.979 10.032C 108.979 11.818 107.972 13.091 106.395 13.091Z"/>
<path id="path10_fill" d="M 122.089 14.858C 123.875 14.858 124.958 14.098 125.604 13.224L 124.293 12.008C 123.78 12.711 123.077 13.091 122.184 13.091C 120.512 13.091 119.41 11.818 119.41 10.032C 119.41 8.246 120.512 6.992 122.184 6.992C 123.077 6.992 123.78 7.353 124.293 8.075L 125.604 6.859C 124.958 5.985 123.875 5.225 122.089 5.225C 119.296 5.225 117.339 7.258 117.339 10.032C 117.339 12.825 119.296 14.858 122.089 14.858Z"/>
<path id="path11_fill" d="M 135.542 14.63L 135.542 5.453L 133.547 5.453L 133.547 11.894C 133.072 12.521 132.198 13.091 131.191 13.091C 130.07 13.091 129.348 12.654 129.348 11.229L 129.348 5.453L 127.353 5.453L 127.353 11.951C 127.353 13.832 128.322 14.858 130.298 14.858C 131.742 14.858 132.882 14.155 133.547 13.414L 133.547 14.63L 135.542 14.63ZM 132.597 4.066L 129.937 1.33L 128.037 1.33L 131.172 4.066L 132.597 4.066Z"/>
<path id="path12_fill" d="M 146.322 14.63L 146.322 8.17C 146.322 6.289 145.334 5.225 143.358 5.225C 141.914 5.225 140.736 5.985 140.128 6.707L 140.128 5.453L 138.133 5.453L 138.133 14.63L 140.128 14.63L 140.128 8.227C 140.584 7.6 141.458 6.992 142.484 6.992C 143.605 6.992 144.327 7.467 144.327 8.892L 144.327 14.63L 146.322 14.63Z"/>
<path id="path13_fill" d="M 152.637 18.354C 154.898 18.354 157.349 17.461 157.349 14.155L 157.349 5.453L 155.354 5.453L 155.354 6.726C 154.613 5.757 153.568 5.225 152.409 5.225C 150.053 5.225 148.343 6.973 148.343 9.937C 148.343 12.958 150.072 14.649 152.409 14.649C 153.606 14.649 154.651 14.041 155.354 13.129L 155.354 14.231C 155.354 16.112 153.948 16.72 152.637 16.72C 151.421 16.72 150.471 16.397 149.73 15.542L 148.799 16.986C 149.92 18.012 151.079 18.354 152.637 18.354ZM 152.998 12.882C 151.421 12.882 150.414 11.704 150.414 9.937C 150.414 8.17 151.421 6.992 152.998 6.992C 153.929 6.992 154.917 7.543 155.354 8.227L 155.354 11.647C 154.917 12.331 153.929 12.882 152.998 12.882Z"/>
<path id="path14_fill" d="M 164.15 5.605C 164.15 6.992 165.062 7.809 166.088 7.809C 167.038 7.809 167.836 7.011 167.836 6.042C 167.836 5.111 167.171 4.484 166.373 4.484C 166.183 4.484 166.012 4.522 165.936 4.541C 166.126 3.857 166.924 3.04 167.532 2.736L 166.316 1.748C 164.986 2.698 164.15 4.047 164.15 5.605ZM 168.425 5.605C 168.425 6.992 169.356 7.809 170.382 7.809C 171.313 7.809 172.111 7.011 172.111 6.042C 172.111 5.111 171.465 4.484 170.648 4.484C 170.458 4.484 170.287 4.522 170.211 4.541C 170.42 3.857 171.199 3.04 171.807 2.736L 170.591 1.748C 169.261 2.698 168.425 4.047 168.425 5.605Z"/>
<path id="path15_fill" d="M 182.735 14.63L 179.6 9.918L 182.526 5.453L 179.315 5.453L 177.757 7.942L 176.18 5.453L 172.969 5.453L 175.914 9.918L 172.779 14.63L 175.971 14.63L 177.757 11.856L 179.524 14.63L 182.735 14.63Z"/>
<path id="path16_fill" d="M 190.363 4.066L 188.596 1.33L 186.031 1.33L 184.321 4.066L 186.05 4.066L 187.304 2.527L 188.615 4.066L 190.363 4.066ZM 194.562 0L 191.978 0L 189.565 2.736L 191.541 2.736L 194.562 0ZM 187.475 14.858C 188.881 14.858 190.401 14.459 191.313 13.642L 190.078 11.818C 189.565 12.312 188.444 12.597 187.798 12.597C 186.468 12.597 185.67 11.818 185.499 10.963L 192.035 10.963L 192.035 10.336C 192.035 7.22 190.059 5.225 187.342 5.225C 184.473 5.225 182.459 7.372 182.459 10.032C 182.459 13.015 184.644 14.858 187.475 14.858ZM 189.242 9.063L 185.461 9.063C 185.575 8.398 186.069 7.486 187.342 7.486C 188.691 7.486 189.166 8.417 189.242 9.063Z"/>
<path id="path17_fill" d="M 198.148 18.202C 198.452 18.297 199.136 18.354 199.402 18.354C 201.15 18.316 202.537 17.879 203.278 15.941L 207.42 5.453L 204.323 5.453L 202.233 11.267L 200.162 5.453L 197.084 5.453L 200.732 14.763L 200.523 15.257C 200.371 15.637 199.953 15.77 199.288 15.77C 199.06 15.77 198.775 15.713 198.566 15.599L 198.148 18.202Z"/>
<path id="path18_fill" d="M 215.617 4.066L 213.85 1.33L 211.285 1.33L 209.575 4.066L 211.304 4.066L 212.558 2.527L 213.869 4.066L 215.617 4.066ZM 212.71 14.858C 214.116 14.858 215.636 14.459 216.548 13.642L 215.313 11.818C 214.8 12.312 213.679 12.597 213.033 12.597C 211.703 12.597 210.905 11.818 210.734 10.963L 217.27 10.963L 217.27 10.336C 217.27 7.22 215.294 5.225 212.577 5.225C 209.708 5.225 207.694 7.372 207.694 10.032C 207.694 13.015 209.879 14.858 212.71 14.858ZM 214.477 9.063L 210.696 9.063C 210.81 8.398 211.304 7.486 212.577 7.486C 213.926 7.486 214.401 8.417 214.477 9.063Z"/>
<path id="path19_fill" d="M 227.831 14.63L 227.831 5.453L 224.905 5.453L 224.905 11.381C 224.563 11.818 223.993 12.274 223.157 12.274C 222.207 12.274 221.637 11.894 221.637 10.792L 221.637 5.453L 218.711 5.453L 218.711 11.989C 218.711 13.68 219.642 14.858 221.732 14.858C 223.271 14.858 224.335 14.174 224.905 13.528L 224.905 14.63L 227.831 14.63Z"/>
<path id="path20_fill" d="M 237.631 3.971C 237.631 2.565 236.7 1.767 235.674 1.767C 234.743 1.767 233.945 2.546 233.945 3.515C 233.945 4.465 234.591 5.092 235.408 5.092C 235.579 5.092 235.769 5.054 235.845 5.016C 235.636 5.719 234.857 6.536 234.249 6.84L 235.465 7.828C 236.795 6.878 237.631 5.51 237.631 3.971ZM 233.337 3.971C 233.337 2.565 232.425 1.767 231.399 1.767C 230.449 1.767 229.651 2.546 229.651 3.515C 229.651 4.465 230.316 5.092 231.133 5.092C 231.304 5.092 231.475 5.054 231.57 5.016C 231.361 5.719 230.563 6.536 229.955 6.84L 231.171 7.828C 232.501 6.878 233.337 5.51 233.337 3.971Z"/>
<path id="path21_fill" d="M 11.552 38.63L 11.552 25.957L 9.329 25.957L 9.329 34.754L 2.85 25.957L 0.57 25.957L 0.57 38.63L 2.793 38.63L 2.793 29.586L 9.405 38.63L 11.552 38.63Z"/>
<path id="path22_fill" d="M 22.3958 38.63L 22.3958 32.132C 22.3958 30.251 21.4078 29.225 19.4318 29.225C 17.9878 29.225 16.7908 29.985 16.1828 30.707L 16.1828 25.957L 14.1878 25.957L 14.1878 38.63L 16.1828 38.63L 16.1828 32.227C 16.6578 31.6 17.5318 30.992 18.5388 30.992C 19.6598 30.992 20.4008 31.429 20.4008 32.854L 20.4008 38.63L 22.3958 38.63Z"/>
<path id="path23_fill" d="M 32.5866 38.63L 32.5866 32.55C 32.5866 30.08 30.8006 29.225 28.7676 29.225C 27.3046 29.225 25.9746 29.7 24.9106 30.707L 25.7276 32.094C 26.5256 31.315 27.4186 30.935 28.4446 30.935C 29.7176 30.935 30.5916 31.581 30.5916 32.645L 30.5916 34.013C 29.9266 33.234 28.8626 32.835 27.6276 32.835C 26.1266 32.835 24.4356 33.709 24.4356 35.818C 24.4356 37.851 26.1266 38.858 27.6276 38.858C 28.8436 38.858 29.9076 38.421 30.5916 37.642L 30.5916 38.63L 32.5866 38.63ZM 28.4066 37.49C 27.2856 37.49 26.4496 36.844 26.4496 35.856C 26.4496 34.849 27.2856 34.203 28.4066 34.203C 29.2806 34.203 30.1356 34.526 30.5916 35.153L 30.5916 36.54C 30.1356 37.167 29.2806 37.49 28.4066 37.49ZM 31.4846 28.066L 29.6606 25.33L 27.8366 25.33L 26.0696 28.066L 27.3236 28.066L 28.7486 26.242L 30.2116 28.066L 31.4846 28.066ZM 28.7866 42.259C 29.3946 42.259 29.8886 41.765 29.8886 41.138C 29.8886 40.53 29.3946 40.017 28.7866 40.017C 28.1786 40.017 27.6656 40.53 27.6656 41.138C 27.6656 41.765 28.1786 42.259 28.7866 42.259Z"/>
<path id="path24_fill" d="M 43.3622 38.63L 43.3622 32.17C 43.3622 30.289 42.3742 29.225 40.3982 29.225C 38.9542 29.225 37.7762 29.985 37.1682 30.707L 37.1682 29.453L 35.1732 29.453L 35.1732 38.63L 37.1682 38.63L 37.1682 32.227C 37.6242 31.6 38.4982 30.992 39.5242 30.992C 40.6452 30.992 41.3672 31.467 41.3672 32.892L 41.3672 38.63L 43.3622 38.63Z"/>
<path id="path25_fill" d="M 59.0223 38.63L 59.0223 32.17C 59.0223 30.289 58.0343 29.225 56.0583 29.225C 54.6143 29.225 53.4363 29.985 52.8283 30.707L 52.8283 29.453L 50.8333 29.453L 50.8333 38.63L 52.8283 38.63L 52.8283 32.227C 53.2843 31.6 54.1583 30.992 55.1843 30.992C 56.3053 30.992 57.0273 31.467 57.0273 32.892L 57.0273 38.63L 59.0223 38.63Z"/>
<path id="path26_fill" d="M 65.3376 42.354C 67.5986 42.354 70.0496 41.461 70.0496 38.155L 70.0496 29.453L 68.0546 29.453L 68.0546 30.726C 67.3136 29.757 66.2686 29.225 65.1096 29.225C 62.7536 29.225 61.0436 30.973 61.0436 33.937C 61.0436 36.958 62.7726 38.649 65.1096 38.649C 66.3066 38.649 67.3516 38.041 68.0546 37.129L 68.0546 38.231C 68.0546 40.112 66.6486 40.72 65.3376 40.72C 64.1216 40.72 63.1716 40.397 62.4306 39.542L 61.4996 40.986C 62.6206 42.012 63.7796 42.354 65.3376 42.354ZM 65.6986 36.882C 64.1216 36.882 63.1146 35.704 63.1146 33.937C 63.1146 32.17 64.1216 30.992 65.6986 30.992C 66.6296 30.992 67.6176 31.543 68.0546 32.227L 68.0546 35.647C 67.6176 36.331 66.6296 36.882 65.6986 36.882Z"/>
<path id="path27_fill" d="M 80.2351 38.63L 80.2351 32.55C 80.2351 30.08 78.4491 29.225 76.4161 29.225C 74.9531 29.225 73.6231 29.7 72.5591 30.707L 73.3761 32.094C 74.1741 31.315 75.0671 30.935 76.0931 30.935C 77.3661 30.935 78.2401 31.581 78.2401 32.645L 78.2401 34.013C 77.5751 33.234 76.5111 32.835 75.2761 32.835C 73.7751 32.835 72.0841 33.709 72.0841 35.818C 72.0841 37.851 73.7751 38.858 75.2761 38.858C 76.4921 38.858 77.5561 38.421 78.2401 37.642L 78.2401 38.63L 80.2351 38.63ZM 76.0551 37.49C 74.9341 37.49 74.0981 36.844 74.0981 35.856C 74.0981 34.849 74.9341 34.203 76.0551 34.203C 76.9291 34.203 77.7841 34.526 78.2401 35.153L 78.2401 36.54C 77.7841 37.167 76.9291 37.49 76.0551 37.49Z"/>
<path id="path28_fill" d="M 82.4226 42.221C 82.7076 42.297 83.2586 42.354 83.5436 42.354C 84.9686 42.335 86.0706 41.841 86.6976 40.283L 91.1246 29.453L 88.9776 29.453L 86.2986 36.331L 83.6196 29.453L 81.4916 29.453L 85.2536 38.744L 84.7976 39.789C 84.5316 40.397 84.1136 40.587 83.4866 40.587C 83.2586 40.587 82.9356 40.53 82.7266 40.435L 82.4226 42.221Z"/>
<path id="path29_fill" d="M 96.5921 29.605C 96.5921 30.992 97.5041 31.809 98.5301 31.809C 99.4801 31.809 100.278 31.011 100.278 30.042C 100.278 29.111 99.6131 28.484 98.8151 28.484C 98.6251 28.484 98.4541 28.522 98.3781 28.541C 98.5681 27.857 99.3661 27.04 99.9741 26.736L 98.7581 25.748C 97.4281 26.698 96.5921 28.047 96.5921 29.605ZM 100.867 29.605C 100.867 30.992 101.798 31.809 102.824 31.809C 103.755 31.809 104.553 31.011 104.553 30.042C 104.553 29.111 103.907 28.484 103.09 28.484C 102.9 28.484 102.729 28.522 102.653 28.541C 102.862 27.857 103.641 27.04 104.249 26.736L 103.033 25.748C 101.703 26.698 100.867 28.047 100.867 29.605Z"/>
<path id="path30_fill" d="M 109.325 35.457L 109.325 32.645C 109.686 32.151 110.446 31.809 111.073 31.809C 112.232 31.809 113.106 32.664 113.106 34.032C 113.106 35.419 112.232 36.274 111.073 36.274C 110.446 36.274 109.686 35.951 109.325 35.457ZM 109.325 38.63L 109.325 37.566C 110.085 38.44 111.016 38.858 112.042 38.858C 114.303 38.858 116.089 37.148 116.089 34.032C 116.089 31.03 114.322 29.225 112.042 29.225C 111.035 29.225 110.047 29.624 109.325 30.536L 109.325 25.957L 106.399 25.957L 106.399 38.63L 109.325 38.63Z"/>
<path id="path31_fill" d="M 125.966 38.63L 125.966 32.892C 125.966 30.042 123.895 29.225 121.691 29.225C 120.285 29.225 118.708 29.643 117.53 30.65L 118.575 32.493C 119.316 31.866 120.266 31.524 121.178 31.524C 122.356 31.524 123.04 32.056 123.04 32.854L 123.04 33.956C 122.489 33.272 121.406 32.892 120.19 32.892C 118.784 32.892 117.036 33.614 117.036 35.837C 117.036 37.908 118.784 38.858 120.19 38.858C 121.368 38.858 122.47 38.402 123.04 37.718L 123.04 38.63L 125.966 38.63ZM 121.406 36.939C 120.627 36.939 119.943 36.597 119.943 35.875C 119.943 35.153 120.627 34.811 121.406 34.811C 122.052 34.811 122.736 35.039 123.04 35.457L 123.04 36.274C 122.736 36.711 122.052 36.939 121.406 36.939ZM 122.774 28.104C 124.18 28.104 124.921 27.23 124.921 25.558L 123.439 25.558C 123.439 26.204 123.173 26.489 122.869 26.489C 122.261 26.489 121.938 25.444 120.722 25.444C 119.316 25.444 118.575 26.299 118.575 27.99L 120.057 27.99C 120.057 27.344 120.323 27.059 120.627 27.059C 121.235 27.059 121.539 28.104 122.774 28.104Z"/>
<path id="path32_fill" d="M 132.479 38.858C 135.633 38.858 137.495 36.616 137.495 34.032C 137.495 31.448 135.633 29.225 132.479 29.225C 129.363 29.225 127.482 31.448 127.482 34.032C 127.482 36.616 129.363 38.858 132.479 38.858ZM 132.479 36.274C 131.206 36.274 130.503 35.267 130.503 34.032C 130.503 32.816 131.206 31.809 132.479 31.809C 133.771 31.809 134.493 32.816 134.493 34.032C 134.493 35.267 133.771 36.274 132.479 36.274Z"/>
<path id="path33_fill" d="M 146.527 27.971C 146.527 26.565 145.596 25.767 144.57 25.767C 143.639 25.767 142.841 26.546 142.841 27.515C 142.841 28.465 143.487 29.092 144.304 29.092C 144.475 29.092 144.665 29.054 144.741 29.016C 144.532 29.719 143.753 30.536 143.145 30.84L 144.361 31.828C 145.691 30.878 146.527 29.51 146.527 27.971ZM 142.233 27.971C 142.233 26.565 141.321 25.767 140.295 25.767C 139.345 25.767 138.547 26.546 138.547 27.515C 138.547 28.465 139.212 29.092 140.029 29.092C 140.2 29.092 140.371 29.054 140.466 29.016C 140.257 29.719 139.459 30.536 138.851 30.84L 140.067 31.828C 141.397 30.878 142.233 29.51 142.233 27.971Z"/>
<path id="path34_fill" d="M 157.376 37.091C 155.799 37.091 154.792 35.818 154.792 34.032C 154.792 32.265 155.799 30.992 157.376 30.992C 158.307 30.992 159.295 31.543 159.732 32.227L 159.732 35.856C 159.295 36.521 158.307 37.091 157.376 37.091ZM 156.787 38.858C 157.946 38.858 158.991 38.345 159.732 37.357L 159.732 42.126L 161.727 42.126L 161.727 29.453L 159.732 29.453L 159.732 30.707C 159.048 29.795 157.984 29.225 156.787 29.225C 154.412 29.225 152.721 31.011 152.721 34.032C 152.721 37.053 154.412 38.858 156.787 38.858Z"/>
<path id="path35_fill" d="M 172.503 38.63L 172.503 29.453L 170.508 29.453L 170.508 35.894C 170.033 36.521 169.159 37.091 168.152 37.091C 167.031 37.091 166.309 36.654 166.309 35.229L 166.309 29.453L 164.314 29.453L 164.314 35.951C 164.314 37.832 165.283 38.858 167.259 38.858C 168.703 38.858 169.843 38.155 170.508 37.414L 170.508 38.63L 172.503 38.63Z"/>
<path id="path36_fill" d="M 182.694 38.63L 182.694 32.55C 182.694 30.08 180.908 29.225 178.875 29.225C 177.412 29.225 176.082 29.7 175.018 30.707L 175.835 32.094C 176.633 31.315 177.526 30.935 178.552 30.935C 179.825 30.935 180.699 31.581 180.699 32.645L 180.699 34.013C 180.034 33.234 178.97 32.835 177.735 32.835C 176.234 32.835 174.543 33.709 174.543 35.818C 174.543 37.851 176.234 38.858 177.735 38.858C 178.951 38.858 180.015 38.421 180.699 37.642L 180.699 38.63L 182.694 38.63ZM 178.514 37.49C 177.393 37.49 176.557 36.844 176.557 35.856C 176.557 34.849 177.393 34.203 178.514 34.203C 179.388 34.203 180.243 34.526 180.699 35.153L 180.699 36.54C 180.243 37.167 179.388 37.49 178.514 37.49ZM 180.034 28.066L 177.374 25.33L 175.474 25.33L 178.609 28.066L 180.034 28.066Z"/>
<path id="path37_fill" d="M 192.915 38.858C 193.846 38.858 194.435 38.611 194.796 38.269L 194.321 36.768C 194.169 36.939 193.808 37.091 193.428 37.091C 192.858 37.091 192.554 36.635 192.554 36.008L 192.554 31.201L 194.416 31.201L 194.416 29.453L 192.554 29.453L 192.554 26.945L 190.559 26.945L 190.559 29.453L 189.039 29.453L 189.039 31.201L 190.559 31.201L 190.559 36.502C 190.559 38.022 191.376 38.858 192.915 38.858Z"/>
<path id="path38_fill" d="M 203.828 38.63L 203.828 32.55C 203.828 30.08 202.042 29.225 200.009 29.225C 198.546 29.225 197.216 29.7 196.152 30.707L 196.969 32.094C 197.767 31.315 198.66 30.935 199.686 30.935C 200.959 30.935 201.833 31.581 201.833 32.645L 201.833 34.013C 201.168 33.234 200.104 32.835 198.869 32.835C 197.368 32.835 195.677 33.709 195.677 35.818C 195.677 37.851 197.368 38.858 198.869 38.858C 200.085 38.858 201.149 38.421 201.833 37.642L 201.833 38.63L 203.828 38.63ZM 199.648 37.49C 198.527 37.49 197.691 36.844 197.691 35.856C 197.691 34.849 198.527 34.203 199.648 34.203C 200.522 34.203 201.377 34.526 201.833 35.153L 201.833 36.54C 201.377 37.167 200.522 37.49 199.648 37.49ZM 200.028 42.259C 200.636 42.259 201.13 41.765 201.13 41.138C 201.13 40.53 200.636 40.017 200.028 40.017C 199.42 40.017 198.907 40.53 198.907 41.138C 198.907 41.765 199.42 42.259 200.028 42.259ZM 203.315 26.812L 202.403 26.052C 201.852 26.831 200.997 27.306 199.99 27.306C 198.945 27.306 198.109 26.812 197.558 26.052L 196.646 26.812C 197.425 27.838 198.641 28.484 199.99 28.484C 201.358 28.484 202.555 27.838 203.315 26.812Z"/>
<path id="path39_fill" d="M 214.603 38.63L 214.603 32.17C 214.603 30.289 213.615 29.225 211.639 29.225C 210.195 29.225 209.017 29.985 208.409 30.707L 208.409 29.453L 206.414 29.453L 206.414 38.63L 208.409 38.63L 208.409 32.227C 208.865 31.6 209.739 30.992 210.765 30.992C 211.886 30.992 212.608 31.467 212.608 32.892L 212.608 38.63L 214.603 38.63Z"/>
<path id="path40_fill" d="M 220.919 42.354C 223.18 42.354 225.631 41.461 225.631 38.155L 225.631 29.453L 223.636 29.453L 223.636 30.726C 222.895 29.757 221.85 29.225 220.691 29.225C 218.335 29.225 216.625 30.973 216.625 33.937C 216.625 36.958 218.354 38.649 220.691 38.649C 221.888 38.649 222.933 38.041 223.636 37.129L 223.636 38.231C 223.636 40.112 222.23 40.72 220.919 40.72C 219.703 40.72 218.753 40.397 218.012 39.542L 217.081 40.986C 218.202 42.012 219.361 42.354 220.919 42.354ZM 221.28 36.882C 219.703 36.882 218.696 35.704 218.696 33.937C 218.696 32.17 219.703 30.992 221.28 30.992C 222.211 30.992 223.199 31.543 223.636 32.227L 223.636 35.647C 223.199 36.331 222.211 36.882 221.28 36.882Z"/>
<path id="path41_fill" d="M 230.116 34.754L 230.458 25.957L 228.026 25.957L 228.387 34.754L 230.116 34.754ZM 229.242 38.82C 229.964 38.82 230.572 38.212 230.572 37.509C 230.572 36.787 229.964 36.179 229.242 36.179C 228.52 36.179 227.931 36.787 227.931 37.509C 227.931 38.212 228.52 38.82 229.242 38.82Z"/>
</defs>
</svg>
