<svg width="162" height="40" viewBox="0 0 162 40" version="1.1" xmlns="http://www.w3.org/2000/svg" xmlns:xlink="http://www.w3.org/1999/xlink">
<title>Group</title>
<desc>Created using Figma</desc>
<g id="Canvas" transform="translate(-29534 -8983)">
<g id="Group">
<g id="Vector">
<use xlink:href="#path0_fill" transform="translate(29534 8983)" fill="#FFFFFF"/>
</g>
</g>
</g>
<defs>
<path id="path0_fill" d="M 162 0L 8.04871 0L 7.9698 0.392157L 7.57526 0.392157L 6.31271 8.70588L 2.13054 29.4118L 2.05163 29.4118L 1.8149 30.9804L 0 40L 153.951 40L 154.03 39.6078L 154.346 39.6078L 154.583 38.0392L 156.003 29.4902L 159.869 10.3529L 159.948 9.72549L 161.527 1.80392L 161.527 1.72549L 162 0ZM 159.08 10.5882L 155.293 29.4118L 154.583 29.2549L 153.083 38.1176L 144.324 37.9608L 144.088 39.2941L 10.7316 39.2941L 10.7316 38.1176L 2.28836 38.1176L 3.62981 29.4902L 2.91963 29.4902L 6.70726 10.6667L 7.57526 10.6667L 8.91671 2.03922L 17.8334 2.03922L 17.8334 0.784314L 151.032 0.784314L 151.268 2.11765L 159.633 1.96078L 158.37 10.7451L 159.08 10.5882Z"/>
</defs>
</svg>
